<svg xmlns="http://www.w3.org/2000/svg" width="512" height="512" viewBox="0 0 512 512" fill="none">
    <!-- 墨云主体 -->
    <path d="M331 289c30 2 56-16 62-41 6-25-11-50-36-56 4-33-20-63-55-67-13-1-25 1-35 7-13-28-44-46-78-42-41 5-70 38-67 76-28 4-51 25-55 52-4 24 8 47 28 59-14 8-23 23-20 39 3 20 21 35 43 35 6 22 28 38 53 38 14 0 27-5 37-13 10 17 29 28 50 28 26 0 48-16 54-38 27 6 55-9 63-32 8-23-5-46-26-51z" fill="#1a1a1a" stroke="#000000" stroke-width="6" stroke-linejoin="round"></path>

    <!-- 章鱼头（从墨云里探出来） -->
    <path d="M256 210c-38 0-70 28-70 63 0 20 5 32 10 40 4 6 10 11 17 15 11 7 25 11 43 11 18 0 32-4 43-11 7-4 13-9 17-15 5-8 10-20 10-40 0-35-32-63-70-63z" fill="#2b2b2b" stroke="#000000" stroke-width="6" stroke-linejoin="round"></path>

    <!-- 章鱼眼白 -->
    <ellipse cx="232" cy="238" rx="18" ry="22" fill="#ffffff" stroke="#000000" stroke-width="4"></ellipse>
    <ellipse cx="280" cy="238" rx="18" ry="22" fill="#ffffff" stroke="#000000" stroke-width="4"></ellipse>

    <!-- 瞳孔 -->
    <ellipse cx="236" cy="244" rx="7" ry="9" fill="#000000"></ellipse>
    <ellipse cx="284" cy="244" rx="7" ry="9" fill="#000000"></ellipse>

    <!-- 眼神高光 -->
    <circle cx="233" cy="240" r="2.5" fill="#ffffff"></circle>
    <circle cx="281" cy="240" r="2.5" fill="#ffffff"></circle>

    <!-- 小愤怒眉毛（提高攻击性，可以删掉做可爱款） -->
    <path d="M220 224c6-5 14-7 22-6" stroke="#000000" stroke-width="5" stroke-linecap="round"></path>
    <path d="M292 224c-6-5-14-7-22-6" stroke="#000000" stroke-width="5" stroke-linecap="round"></path>

    <!-- 章鱼嘴 / 喙 -->
    <path d="M248 260c0 6 4 10 8 10s8-4 8-10-4-10-8-10-8 4-8 10z" fill="#000000"></path>

    <!-- 墨滴（往下掉的小粒子，可以当成粒子特效参考） -->
    <path d="M196 360c-9 1-16 9-16 17 0 10 8 18 18 18 10 0 18-8 18-18 0-3-1-6-2-8" fill="#1a1a1a" stroke="#000000" stroke-width="4" stroke-linejoin="round"></path>
    <path d="M314 374c-7 1-13 7-13 14 0 8 7 15 15 15s15-7 15-15c0-2-0.4-4-1-6" fill="#1a1a1a" stroke="#000000" stroke-width="4" stroke-linejoin="round"></path>

    <!-- 几个触手从墨云里伸出来（看起来像准备攻击） -->
    <!-- 左触手 -->
    <path d="M180 300c-18 4-31 18-29 33 2 13 14 20 27 17 9-2 17-9 21-18 3-8 6-16 11-22 4-5 10-9 18-11" fill="none" stroke="#000000" stroke-width="8" stroke-linecap="round" stroke-linejoin="round"></path>
    <!-- 右触手 -->
    <path d="M332 300c18 4 31 18 29 33-2 13-14 20-27 17-9-2-17-9-21-18-3-8-6-16-11-22-4-5-10-9-18-11" fill="none" stroke="#000000" stroke-width="8" stroke-linecap="round" stroke-linejoin="round"></path>

    <!-- 墨云高光（轻微灰，用来让它不是死黑块，方便你后期做shader取alpha） -->
    <path d="M214 190c-16 2-29 11-34 24-2 5-2 10-1 15 1 3 4 5 7 4 24-8 44-7 57-5 4 1 7-2 6-6-2-10-11-30-29-32-2 0-4 0-6 0z" fill="rgba(255,255,255,0.08)"></path>
    <path d="M296 188c14 4 22 15 25 24 1 4 5 6 8 4 4-2 6-6 6-11 1-13-9-27-25-31-8-2-14-1-18 2-3 2-2 7 2 8 1 0 1 0 2 0z" fill="rgba(255,255,255,0.06)"></path>

</svg>
