<svg xmlns="http://www.w3.org/2000/svg" viewBox="0 0 100 120">
  <!-- 外轮廓阴影边框 -->
  <path d="M50 5
           L90 20
           L90 55
           C90 85 72 105 50 115
           C28 105 10 85 10 55
           L10 20
           Z" fill="#4a5a5a"></path>

  <!-- 主盾体 -->
  <path d="M50 10
           L84 24
           L84 54
           C84 80 68 98 50 106
           C32 98 16 80 16 54
           L16 24
           Z" fill="#7fd2c4"></path>

  <!-- 内层高光边（稍微往里缩一圈） -->
  <path d="M50 18
           L77 29
           L77 53
           C77 74 64 90 50 97
           C36 90 23 74 23 53
           L23 29
           Z" fill="#a8f0e3"></path>

  <!-- 轻微中心渐暗叠一层，让边更亮、中心稍深，模拟体积感 -->
  <path d="M50 25
           L72 34
           L72 52
           C72 69 61 83 50 89
           C39 83 28 69 28 52
           L28 34
           Z" fill="#6abcae" opacity="0.6"></path>

  <!-- 顶部一点高光反光块 -->
  <path d="M50 18
           L77 29
           L50 40
           L23 29
           Z" fill="#ffffff" opacity="0.25"></path>
</svg>
